<svg xmlns="http://www.w3.org/2000/svg" version="1.1" xmlns:xlink="http://www.w3.org/1999/xlink" xmlns:svgjs="http://svgjs.dev/svgjs" width="100%" height="100%" viewBox="0 0 1000 600"><rect width="1000" height="600" x="0" y="0" fill=" #154413"/><g><rect width="333.3333333333333" height="333.3333333333333" rx="13.333333333333334" ry="13.333333333333334" y="161.85641913016636" fill="#0a300b" transform="matrix(0.8951961884224791,0,0,0.8951961884224791,0,5.907377540150719)" x="139.6342010498047"/><path d="M345.9498199788597 300.2308735736965L338.57790357704425 300.2308735736965Q337.9517176278553 290.411139370506 333.8530459604367 281.5876100864798Q329.75437429301803 272.792543800144 321.9555129258465 267.2422592505146Q314.18511455636536 261.7204376985756 302.0883405379423 261.7204376985756L302.0883405379423 261.7204376985756Q289.3938435680207 261.7204376985756 282.6196501177038 268.8931131165582Q275.84545666738694 276.06578853454084 275.84545666738694 285.68628175389847L275.84545666738694 285.68628175389847Q275.84545666738694 294.31057005409184 280.7695552678274 300.1454845806253Q285.6936538682678 305.98039910715875 293.5779042285106 310.3921637491718Q301.4621545887534 314.80392839118497 310.2856838727796 318.9026000586035L310.2856838727796 318.9026000586035Q318.0845452399511 322.3750857768332 325.85494360943227 326.3599054534902Q333.65380497660385 330.3731881278377 340.0010534615646 335.49652771211095Q346.3483019465254 340.6198672963842 350.13388063934957 347.6786907236052Q353.9479223298641 354.7659771485165 353.9479223298641 364.585711351707L353.9479223298641 364.585711351707Q353.9479223298641 375.8570584371082 348.3122487871635 384.68058772113443Q342.6765752444629 393.4756540074702 332.0029511105602 398.5136045986724Q321.35778997434795 403.523092192184 305.9877712215281 403.523092192184L305.9877712215281 403.523092192184Q296.76575996983615 403.523092192184 286.9175627689553 400.87603340697615Q277.09782856576487 398.2005116240779 269.49820818242614 393.0771720398045L269.49820818242614 393.0771720398045L270.5228760992808 401.90070132383073L259.8777149630685 401.90070132383073L258.653806062381 358.2384628667462L266.623445415695 358.2384628667462Q267.64811333254966 376.28400340246435 279.14716439947415 385.5914036472275Q290.6177524687082 394.92726688968105 306.8131981545499 394.92726688968105L306.8131981545499 394.92726688968105Q314.78283750786386 394.92726688968105 321.5570309581808 391.9386521321883Q328.3312244084977 388.97850037238595 332.31604408515466 383.2289748389237Q336.3008637618117 377.5079123031519 336.3008637618117 369.31056896831456L336.3008637618117 369.31056896831456Q336.3008637618117 360.08855771662274 331.40522815906166 353.9405502154948Q326.4811295586212 347.79254271436685 318.6822681914497 343.26692608159203Q310.91186982196854 338.7697724465078 302.0883405379423 334.6711007790891L302.0883405379423 334.6711007790891Q294.28947917077073 331.1986150608594 286.71832178512244 327.2991843772737Q279.14716439947415 323.3997536936879 272.88530490758455 318.3902661001762Q266.623445415695 313.35231550897413 262.8378667228709 306.37888107482445Q259.0522880300467 299.4339096383651 259.0522880300467 289.5857124374842L259.0522880300467 289.5857124374842Q259.0522880300467 284.26313186937807 260.90238287992315 278.1151243682501Q262.75247772979964 271.9671168671222 267.3634833556456 266.33144332442157Q271.97448898149156 260.69576978172097 280.0579803255672 257.10943207272965Q288.1414716696428 253.52309436373838 300.665190653422 253.52309436373838L300.665190653422 253.52309436373838Q308.4355890229031 253.52309436373838 318.16993423302233 255.6578191905189Q327.9042794431416 257.82100701498985 336.3008637618117 263.9690145161178L336.3008637618117 263.9690145161178L335.5038998264803 255.14548523209157L345.9498199788597 255.14548523209157L345.9498199788597 300.2308735736965Z " fill="#ffffff" transform="matrix(0.8951961884224791,0,0,0.8951961884224791,0,5.907377540150719)"/><path d="M556.3008625216305 400.24984745778715L556.3008625216305 393.4756540074702Q564.0997238888021 393.0771720398045 566.9460236578428 389.889316298479Q569.820786424574 386.7299235548438 570.1338793991683 381.0942500121431Q570.446972373763 375.4585764694425 570.446972373763 368.28590105146L570.446972373763 368.28590105146L570.446972373763 279.7375152366033Q570.446972373763 275.6388435691847 570.6462133575958 271.8532648763605Q570.8454543414286 268.0676861835364 571.0446953252615 264.99368243297243L571.0446953252615 264.99368243297243Q567.3729686231989 265.1929234168053 563.672778923446 265.39216440063814Q560.0010522213835 265.61986838216137 556.3008625216305 265.8191093659942L556.3008625216305 265.8191093659942L556.3008625216305 256.79633909813515L604.6594955976323 256.5970981143023Q623.1035181010161 256.5970981143023 638.4735368538359 260.8950107655538Q653.8435556066557 265.1929234168053 665.0295136989857 274.1018416939027Q676.1870087936254 283.0392229686905 682.2211643039917 296.6445358647052Q688.2837828120483 310.27831175841015 688.2837828120483 328.722334261794L688.2837828120483 328.722334261794Q688.2837828120483 342.86844411392633 683.3596842116079 355.7906450653712Q678.4355856111675 368.6843830191257 668.6158514079771 378.6179692130777Q658.7676542070963 388.58001840472025 644.1092103965366 394.4149329312537Q629.4507665859769 400.24984745778715 610.2097801472617 400.24984745778715L610.2097801472617 400.24984745778715L556.3008625216305 400.24984745778715ZM588.2648089279578 288.76028550446244L588.2648089279578 376.05629942094106Q588.2648089279578 381.60658397057045 588.1794199348865 385.5060146541563Q588.065567944125 389.37698234005165 587.6670859764592 392.0525041229499L587.6670859764592 392.0525041229499Q593.1889075283982 392.2517451067828 597.7999131542441 392.3655970975444Q602.41091878009 392.45098609061563 605.5987745214156 392.45098609061563Q608.7581672650508 392.45098609061563 609.5835941980727 392.45098609061563L609.5835941980727 392.45098609061563Q622.9042771171833 392.45098609061563 633.6632902441571 387.55535048786555Q644.422303371131 382.63125188742515 652.107312747541 373.9215745941606Q659.7923221239508 365.211897300896 664.0048457821312 353.42821625706745Q668.188906442621 341.6445352132389 668.188906442621 327.89690732877216L668.188906442621 327.89690732877216Q668.188906442621 308.4282169085337 661.1300830154 294.1967180633302Q654.0427965904886 279.9652192181266 639.4982047706906 272.0525058601934Q624.9536129508925 264.16825549995065 602.41091878009 264.16825549995065L602.41091878009 264.16825549995065Q594.8397613944418 264.16825549995065 591.8511466369491 267.2422592505146Q588.8909948771467 270.3162630010786 588.5779019025522 275.866547550708Q588.2648089279578 281.38836910264695 588.2648089279578 288.76028550446244L588.2648089279578 288.76028550446244ZM766.7562674445008 402.29918329149643L761.035204908729 402.29918329149643L714.4982036849134 293.28590213723714Q710.0010500498291 282.81151898716735 708.1509551999526 276.3788815091353Q706.300860350076 269.9177810334129 705.7031373985776 265.39216440063814L705.7031373985776 265.39216440063814Q702.8283746318465 265.61986838216137 699.9536118651154 265.61986838216137Q697.0788490983842 265.61986838216137 694.2325493293434 265.8191093659942L694.2325493293434 265.8191093659942L694.2325493293434 256.79633909813515L741.7657554723235 256.79633909813515L741.5665144884906 263.76977353228494Q731.319835319944 264.3674964837835 729.2704994862347 270.0031700264841Q727.2211636525254 275.6388435691847 731.319835319944 285.8855227377313L731.319835319944 285.8855227377313Q736.2439339203845 297.98229675615437 740.7410875554688 309.2536438415556Q745.2382411905531 320.5249909269568 750.7885257401825 333.6464328622344L750.7885257401825 333.6464328622344Q755.7126243406229 345.1170209314686 760.3236299664688 355.6767930746096Q764.9346355923149 366.2365652177506 767.3824533936898 373.2099996519004L767.3824533936898 373.2099996519004L767.7809353613555 373.2099996519004Q770.0579751765881 366.03732423391784 772.3919409872015 359.46237176743375Q774.7543697955053 352.9158822986401 778.027614529902 343.893112030781L778.027614529902 343.893112030781Q784.17562203103 326.6729984280847 788.3881456892103 314.80392839118497Q792.6006693473906 302.90639535659477 795.6746730979545 294.5098110379247Q798.7486768485186 286.1132267192545 800.7980126822277 280.16446020195946L800.7980126822277 280.16446020195946Q802.6196445344139 274.8418796338533 804.0712574166247 271.1416899341004Q805.4944073011451 267.4415002343475 806.7183162018325 264.99368243297243L806.7183162018325 264.99368243297243Q802.8473485159371 265.1929234168053 798.9479178323513 265.39216440063814Q795.0484871487656 265.61986838216137 790.949815481347 265.8191093659942L790.949815481347 265.8191093659942L790.949815481347 256.79633909813515L832.5627181047222 256.79633909813515L832.5627181047222 263.5705325484521Q823.5399478368631 263.9690145161178 818.7297012271844 268.26692716736926Q813.890991619815 272.5648398186207 810.0200239339198 283.6369459201891L810.0200239339198 283.6369459201891Q809.5930789685636 284.6616138370438 808.9953560170651 286.39785669615856Q808.3691700678761 288.1625625529639 806.9460201833557 292.03353023885916Q805.4944073011451 295.932960922445 802.8473485159371 303.4187293150221Q800.1718267330389 310.90449770759915 795.5608211071929 323.59899467752075Q790.949815481347 336.3219546451327 783.890992054126 355.56294108384793Q776.8037056292146 374.8323905202536 766.7562674445008 402.29918329149643L766.7562674445008 402.29918329149643ZM905.0864362198796 403.523092192184L905.0864362198796 403.523092192184Q884.5930778827864 403.523092192184 868.8245771623009 394.92726688968105Q853.0560764418153 386.3029785894877 844.2325471577891 370.1359959013364Q835.4090178737629 353.9405502154948 835.4090178737629 331.5970970285251L835.4090178737629 331.5970970285251Q835.4090178737629 317.0525052087271 839.8207825157759 303.21948833118927Q844.2325471577891 289.3864714536513 853.1414654348865 278.1151243682501Q862.050383711984 266.8437772828489 875.4849186218561 260.1834358232936Q888.9194535317282 253.52309436373838 906.7372900859232 253.52309436373838L906.7372900859232 253.52309436373838Q914.1092064877386 253.52309436373838 921.7088268710773 254.8608552551875Q929.2799842567257 256.17015314894627 936.3388076839466 258.7318229410829Q943.4260941088579 261.2934927332195 949.1471566446298 264.7944414491396L949.1471566446298 264.7944414491396L948.3501927092983 254.94624424825872L959.6215397946996 254.94624424825872L959.6215397946996 301.8817274397401L952.2211603951938 301.8817274397401Q951.4241964598624 288.9595264882953 945.3615779518057 280.0506082111978Q939.3274224414394 271.1416899341004 929.6784662243913 266.4168323174928Q920.0579730050337 261.7204376985756 908.1604399704435 261.7204376985756L908.1604399704435 261.7204376985756Q897.3160378503984 261.7204376985756 887.780933624112 266.5306843082544Q878.2458293978256 271.34093091793324 870.9877649867718 280.0506082111978Q863.7012375780276 288.76028550446244 859.602565910609 300.6578185390525Q855.5038942431903 312.5268885759524 855.5038942431903 326.8722394119176L855.5038942431903 326.8722394119176Q855.5038942431903 346.14168884832316 862.4773286773401 361.3124666173102Q869.4507631114899 376.4832443862972 881.8321671068169 385.07906968880013Q894.2420340998344 393.7033579889935 910.4374797856761 393.7033579889935L910.4374797856761 393.7033579889935Q915.9593013376151 393.7033579889935 921.9934568479814 392.6786900721389Q928.0560753560381 391.6540221552842 934.0902308664045 389.29159334698045Q940.1528493744612 386.9291645386767 945.4754299425673 383.456678820447L945.4754299425673 383.456678820447L945.4754299425673 358.43770385057906Q945.4754299425673 353.51360525013865 945.4754299425673 348.50411765662693Q945.4754299425673 343.4946300631153 945.4754299425673 338.5705314626749L945.4754299425673 338.5705314626749Q941.9744812266473 338.7697724465078 938.3027545245847 338.9690134303406Q934.6025648248318 339.1682544141735 931.1300791066021 339.39595839569665L931.1300791066021 339.39595839569665L931.1300791066021 330.3731881278377L977.4393763488945 330.3731881278377L977.4393763488945 337.1189185804641Q971.6898508154324 337.1189185804641 968.6158470648683 340.10753333795685Q965.5418433143044 343.0676850977592 964.3179344136169 347.2802087559395Q963.0940255129293 351.4642694164294 962.8947845290965 355.4775520907767Q962.6955435452636 359.46237176743375 962.6955435452636 361.51170760114303L962.6955435452636 361.51170760114303L962.6955435452636 392.87793105597166L957.1452589956342 392.87793105597166Q953.8720142612374 392.87793105597166 948.1224887277751 394.1018399566592Q942.4014261920033 395.32574885734675 935.029509790188 398.2005116240779L935.029509790188 398.2005116240779Q928.6537983075367 400.64832942545286 920.2572139888666 402.0999423076636Q911.8606296701964 403.523092192184 905.0864362198796 403.523092192184Z " fill="#ffffff" transform="matrix(0.8951961884224791,0,0,0.8951961884224791,0,5.907377540150719)"/></g></svg>